# xmcd
#
# Track frame offsets:
# 150
# 14838
# 29784
# 46437
# 62555
# 75544
# 90829
# 108157
# 127704
# 149377
# 165868
# 181725
# 195585
# 213065
# 224248
# 240678
#
# Disc length: 3434 seconds
#
#
# Revision: 0
# Processed by: cddbd v1.5.2PL0 Copyright (c) Steve Scherf et al.
# Submitted via: FreeRIP 2.951 
#
DISCID=d30d6810
DTITLE=Dixie Chicks - The Music of
DYEAR=2005
DGENRE=Country
TTITLE0=I Can Love You Better
TTITLE1=There's Your Trouble
TTITLE2=Wide Open Spaces
TTITLE3=You Were Mine
TTITLE4=Let 'Er Rip
TTITLE5=Tonight The Heartache's On Me
TTITLE6=Ready To Run
TTITLE7=Goodbye Earl
TTITLE8=Cowboy Take Me Away
TTITLE9=Sin Wagon
TTITLE10=Without You
TTITLE11=If I Fall, You're Goin' Down With Me
TTITLE12=Heartbreak Town
TTITLE13=Some Days You Gotta Dance
TTITLE14=Long Time Gone
TTITLE15=Landslide
EXTD=
EXTT0=
EXTT1=
EXTT2=
EXTT3=
EXTT4=
EXTT5=
EXTT6=
EXTT7=
EXTT8=
EXTT9=
EXTT10=
EXTT11=
EXTT12=
EXTT13=
EXTT14=
EXTT15=
PLAYORDER=
